<?xml version="1.0" encoding="UTF-8"?><svg id="Laag_2" xmlns="http://www.w3.org/2000/svg" viewBox="0 0 135.02 12.21"><defs><style>.cls-1{fill:#fff;}</style></defs><g><path class="cls-1" d="M26.16,10.39c-.68-.42-1.23-.99-1.64-1.71-.41-.72-.61-1.51-.61-2.37s.2-1.65,.61-2.37,.95-1.29,1.64-1.71c.68-.42,1.42-.63,2.22-.63,.73,0,1.38,.16,1.95,.49s1.04,.74,1.41,1.26,.62,1.07,.76,1.65h-1.93c-.12-.43-.37-.81-.75-1.13-.38-.32-.86-.48-1.43-.48-.47,0-.9,.13-1.3,.38-.4,.26-.72,.61-.95,1.05-.24,.45-.36,.94-.36,1.49s.12,1.04,.36,1.49c.24,.45,.56,.8,.95,1.05,.4,.25,.83,.38,1.3,.38,.57,0,1.05-.16,1.43-.47s.66-.69,.81-1.12h1.93c-.14,.58-.39,1.13-.76,1.64-.37,.52-.84,.93-1.43,1.26-.58,.33-1.25,.49-1.99,.49-.8,0-1.54-.21-2.22-.63Z"/><path class="cls-1" d="M33.75,10.85V1.77h1.76v3.11h.06c.06-.09,.18-.19,.34-.32,.17-.13,.38-.24,.63-.34s.52-.15,.82-.15c.48,0,.92,.12,1.3,.36,.38,.24,.69,.58,.9,1.01,.22,.44,.32,.94,.32,1.51v3.91h-1.76v-3.75c0-.39-.13-.72-.38-.99s-.56-.41-.93-.41-.69,.13-.94,.4c-.25,.27-.37,.6-.37,1v3.75h-1.76Z"/><path class="cls-1" d="M41.37,10.85V4.23h1.32l.29,.65h.06c.13-.17,.33-.35,.59-.54,.26-.19,.58-.28,.95-.28,.23,0,.43,.02,.6,.07v1.76c-.16-.04-.39-.07-.66-.07-.42,0-.76,.13-1.01,.38-.25,.26-.38,.61-.38,1.06v3.58h-1.76Z"/><path class="cls-1" d="M46.28,3.1c-.19-.19-.29-.42-.29-.7s.1-.51,.29-.7,.42-.29,.7-.29,.51,.1,.7,.29,.29,.42,.29,.7-.1,.51-.29,.7-.42,.29-.7,.29-.51-.09-.7-.29Zm1.58,7.75h-1.76V4.23h1.76v6.62Z"/><path class="cls-1" d="M50.3,10.73c-.41-.2-.73-.46-.95-.8-.23-.34-.35-.72-.36-1.15h1.73c.02,.25,.12,.45,.31,.6s.42,.23,.71,.23,.49-.06,.64-.17,.23-.26,.23-.43c0-.22-.1-.38-.31-.51s-.53-.25-.97-.39c-.45-.14-.82-.28-1.11-.42-.29-.14-.54-.34-.75-.6-.21-.26-.31-.6-.31-1.02,0-.38,.1-.72,.3-1.03,.2-.3,.49-.54,.87-.71,.38-.17,.83-.26,1.36-.26s.94,.1,1.33,.29c.38,.19,.69,.45,.9,.78,.22,.33,.34,.7,.38,1.11h-1.74c-.06-.51-.35-.77-.87-.77-.25,0-.44,.05-.57,.15-.13,.1-.19,.23-.19,.38,0,.19,.1,.34,.29,.45s.51,.23,.94,.36c.46,.14,.83,.28,1.13,.41,.29,.13,.55,.34,.77,.61,.22,.27,.32,.63,.32,1.06,0,.63-.23,1.14-.69,1.54s-1.11,.59-1.94,.59c-.54,0-1.01-.1-1.42-.29Z"/><path class="cls-1" d="M56.47,10.37c-.42-.43-.62-1.02-.62-1.76v-2.8h-1.02v-1.44h.45c.25,0,.45-.07,.58-.2,.14-.13,.21-.33,.21-.58v-1.01h1.54v1.66h1.36v1.57h-1.36v2.62c0,.31,.08,.54,.24,.7,.16,.16,.38,.23,.67,.23,.18,0,.33-.03,.45-.09v1.61c-.27,.09-.57,.14-.9,.14-.66,0-1.19-.22-1.61-.65Z"/><path class="cls-1" d="M68.95,4.8c.42,.49,.64,1.18,.64,2.08v3.97h-1.77v-3.91c0-.38-.1-.68-.29-.91-.19-.22-.44-.34-.73-.34s-.54,.11-.73,.34-.29,.53-.29,.91v3.91h-1.76v-3.91c0-.38-.1-.68-.29-.91-.19-.22-.44-.34-.73-.34s-.54,.11-.73,.34c-.19,.22-.29,.53-.29,.91v3.91h-1.76V4.23h1.32l.29,.65h.06c.12-.17,.32-.35,.6-.54,.28-.19,.61-.28,.99-.28,.45,0,.83,.1,1.13,.29,.3,.19,.54,.41,.7,.65,.18-.24,.45-.46,.79-.65,.35-.19,.72-.29,1.13-.29,.74,0,1.31,.25,1.74,.74Z"/><path class="cls-1" d="M75.68,4.84c.49,.51,.74,1.2,.74,2.06v3.96h-1.32l-.29-.65h-.06c-.52,.54-1.15,.82-1.88,.82-.42,0-.79-.09-1.13-.26-.34-.17-.61-.41-.8-.71-.2-.3-.29-.64-.29-1,0-.45,.13-.84,.4-1.17,.27-.33,.64-.59,1.12-.77,.48-.18,1.03-.27,1.65-.27h.84v-.13c0-.34-.09-.6-.27-.79-.18-.19-.43-.29-.74-.29-.27,0-.48,.07-.64,.21-.16,.14-.26,.3-.29,.46h-1.76c.03-.39,.16-.75,.37-1.1s.52-.62,.92-.83,.87-.32,1.43-.32c.86,0,1.53,.26,2.02,.77Zm-1.41,4.38c.25-.24,.38-.53,.38-.86v-.34h-.9c-.48,0-.82,.08-1.04,.23-.22,.15-.32,.36-.32,.63,0,.21,.08,.38,.23,.51,.15,.13,.37,.2,.66,.2,.41,0,.74-.12,.99-.36Z"/><path class="cls-1" d="M78.78,10.73c-.41-.2-.73-.46-.95-.8-.23-.34-.35-.72-.36-1.15h1.73c.02,.25,.12,.45,.3,.6,.19,.15,.42,.23,.71,.23s.49-.06,.64-.17,.23-.26,.23-.43c0-.22-.1-.38-.31-.51s-.53-.25-.97-.39c-.45-.14-.82-.28-1.11-.42-.29-.14-.54-.34-.75-.6-.21-.26-.31-.6-.31-1.02,0-.38,.1-.72,.3-1.03s.49-.54,.87-.71,.83-.26,1.36-.26,.95,.1,1.33,.29c.38,.19,.69,.45,.9,.78,.22,.33,.34,.7,.38,1.11h-1.74c-.06-.51-.35-.77-.87-.77-.25,0-.44,.05-.57,.15-.13,.1-.2,.23-.2,.38,0,.19,.1,.34,.29,.45,.2,.11,.51,.23,.94,.36,.46,.14,.83,.28,1.13,.41s.55,.34,.77,.61c.22,.27,.32,.63,.32,1.06,0,.63-.23,1.14-.69,1.54s-1.11,.59-1.94,.59c-.54,0-1.01-.1-1.42-.29Z"/><path class="cls-1" d="M89.47,9.64c-.24,.44-.54,.78-.89,1.03s-.73,.36-1.14,.36c-.48,0-.88-.15-1.18-.44s-.45-.67-.45-1.13c0-.65,.26-1.16,.78-1.54,.52-.38,1.28-.66,2.28-.85l1.04-.19,.04-.23c.03-.2,.04-.39,.04-.56,0-.48-.1-.84-.31-1.1-.21-.25-.5-.38-.88-.38s-.72,.13-.97,.38c-.25,.26-.37,.59-.37,.99,0,.12,.03,.29,.09,.51l-1.08,.38c-.09-.17-.13-.35-.13-.53,0-.4,.13-.76,.4-1.1s.61-.6,1.05-.79c.44-.19,.9-.29,1.38-.29,.61,0,1.09,.17,1.42,.51s.5,.82,.5,1.43c0,.22-.02,.42-.05,.6l-.42,2.66c-.03,.11-.04,.22-.04,.31,0,.18,.05,.32,.16,.4,.1,.09,.28,.13,.53,.13h.13l-.05,.29-1.86,.54h-.25l.22-1.39Zm-2.25,.38c.17,.19,.39,.28,.67,.28,.32,0,.62-.09,.9-.28,.28-.19,.52-.46,.74-.82l.31-1.88-.95,.22c-.66,.16-1.14,.38-1.45,.66s-.47,.64-.47,1.08c0,.31,.08,.56,.25,.75Z"/><path class="cls-1" d="M92.95,10.68c-.5-.24-.83-.54-1-.92l1.09-.7c.08,.46,.27,.83,.56,1.1,.3,.28,.64,.42,1.03,.42s.72-.11,.95-.32c.24-.21,.36-.49,.36-.82,0-.29-.07-.54-.21-.73-.14-.2-.36-.37-.66-.54l-.92-.47c-.42-.22-.74-.47-.95-.73s-.32-.58-.32-.96c0-.56,.21-1.01,.64-1.35,.43-.34,.98-.51,1.65-.51s1.2,.11,1.58,.32c.38,.21,.63,.45,.77,.72l-1.04,.66c-.09-.39-.25-.7-.5-.92-.25-.23-.55-.34-.92-.34s-.67,.1-.89,.3-.33,.47-.33,.82c0,.24,.07,.44,.21,.6,.14,.16,.36,.32,.66,.48l.79,.4c.49,.25,.85,.52,1.08,.81,.22,.29,.34,.63,.34,1.03s-.1,.72-.3,1.02c-.2,.3-.48,.54-.83,.71-.36,.17-.75,.26-1.18,.26-.61,0-1.17-.12-1.67-.36Z"/><path class="cls-1" d="M98.57,10.68c-.5-.24-.83-.54-1-.92l1.09-.7c.08,.46,.27,.83,.56,1.1,.3,.28,.64,.42,1.03,.42s.72-.11,.95-.32c.24-.21,.36-.49,.36-.82,0-.29-.07-.54-.21-.73-.14-.2-.36-.37-.66-.54l-.92-.47c-.42-.22-.74-.47-.95-.73s-.32-.58-.32-.96c0-.56,.21-1.01,.64-1.35,.43-.34,.98-.51,1.65-.51s1.2,.11,1.58,.32c.38,.21,.63,.45,.77,.72l-1.04,.66c-.09-.39-.25-.7-.5-.92-.25-.23-.55-.34-.92-.34s-.67,.1-.89,.3-.33,.47-.33,.82c0,.24,.07,.44,.21,.6,.14,.16,.36,.32,.66,.48l.79,.4c.49,.25,.85,.52,1.08,.81,.22,.29,.34,.63,.34,1.03s-.1,.72-.3,1.02c-.2,.3-.48,.54-.83,.71-.36,.17-.75,.26-1.18,.26-.61,0-1.17-.12-1.67-.36Z"/><path class="cls-1" d="M104.59,5.95c.03-.16,.04-.29,.04-.4,0-.19-.04-.33-.14-.43s-.25-.15-.49-.16h-.12s.03-.29,.03-.29l1.82-.52h.23l-.88,5.57c-.02,.1-.03,.18-.03,.22,0,.25,.1,.38,.31,.38,.11,0,.21-.03,.28-.08,.07-.05,.21-.17,.41-.35l.18,.18c-.28,.34-.53,.58-.77,.73-.24,.15-.49,.23-.75,.23-.53,0-.79-.25-.79-.77,0-.12,.01-.25,.04-.38l.57-3.59c0-.07,.03-.18,.05-.34Zm.48-3c-.15-.15-.22-.33-.22-.56s.07-.41,.22-.56,.34-.23,.57-.23c.22,0,.4,.07,.54,.22,.15,.15,.22,.33,.22,.56s-.07,.41-.22,.56-.33,.23-.56,.23-.41-.07-.56-.22Z"/><path class="cls-1" d="M107.74,10.68c-.5-.24-.83-.54-1-.92l1.09-.7c.08,.46,.27,.83,.56,1.1,.3,.28,.64,.42,1.03,.42s.72-.11,.95-.32c.24-.21,.36-.49,.36-.82,0-.29-.07-.54-.21-.73-.14-.2-.36-.37-.66-.54l-.92-.47c-.42-.22-.74-.47-.95-.73s-.32-.58-.32-.96c0-.56,.21-1.01,.64-1.35,.43-.34,.98-.51,1.65-.51s1.2,.11,1.58,.32c.38,.21,.63,.45,.77,.72l-1.04,.66c-.09-.39-.25-.7-.5-.92-.25-.23-.55-.34-.92-.34s-.67,.1-.89,.3-.33,.47-.33,.82c0,.24,.07,.44,.21,.6,.14,.16,.36,.32,.66,.48l.79,.4c.49,.25,.85,.52,1.08,.81,.22,.29,.34,.63,.34,1.03s-.1,.72-.3,1.02c-.2,.3-.48,.54-.83,.71-.36,.17-.75,.26-1.18,.26-.61,0-1.17-.12-1.67-.36Z"/><path class="cls-1" d="M113.55,10.7c-.22-.22-.32-.55-.32-.99,0-.15,.01-.31,.04-.49l.7-4.43h-1.02l.08-.45h1.03l.21-1.32,1.02-.51h.16l-.29,1.83h1.93l-.08,.45h-1.93l-.7,4.45c-.02,.14-.03,.24-.03,.3,0,.28,.07,.48,.2,.61,.13,.13,.3,.2,.5,.2,.12,0,.25-.04,.38-.11s.29-.19,.47-.34l.18,.18c-.27,.29-.54,.53-.82,.7s-.54,.26-.79,.26c-.39,0-.69-.11-.91-.33Z"/><path class="cls-1" d="M120.58,9.64c-.24,.44-.54,.78-.89,1.03s-.73,.36-1.14,.36c-.48,0-.88-.15-1.18-.44s-.45-.67-.45-1.13c0-.65,.26-1.16,.78-1.54,.52-.38,1.28-.66,2.28-.85l1.04-.19,.04-.23c.03-.2,.04-.39,.04-.56,0-.48-.1-.84-.31-1.1-.21-.25-.5-.38-.88-.38s-.72,.13-.97,.38c-.25,.26-.37,.59-.37,.99,0,.12,.03,.29,.09,.51l-1.08,.38c-.09-.17-.13-.35-.13-.53,0-.4,.13-.76,.4-1.1s.61-.6,1.05-.79c.44-.19,.9-.29,1.38-.29,.61,0,1.09,.17,1.42,.51s.5,.82,.5,1.43c0,.22-.02,.42-.05,.6l-.42,2.66c-.03,.11-.04,.22-.04,.31,0,.18,.05,.32,.16,.4,.1,.09,.28,.13,.53,.13h.13l-.05,.29-1.86,.54h-.25l.22-1.39Zm-2.25,.38c.17,.19,.39,.28,.67,.28,.32,0,.62-.09,.9-.28,.28-.19,.52-.46,.74-.82l.31-1.88-.95,.22c-.66,.16-1.14,.38-1.45,.66s-.47,.64-.47,1.08c0,.31,.08,.56,.25,.75Z"/><path class="cls-1" d="M123.6,10.85l.8-5.07c.02-.12,.03-.2,.03-.25,0-.18-.05-.32-.14-.42s-.26-.15-.49-.16h-.12s.03-.29,.03-.29l1.8-.52h.25l-.22,1.4c.42-.48,.81-.83,1.17-1.06,.37-.23,.73-.34,1.08-.34,.47,0,.84,.14,1.12,.43,.28,.29,.42,.7,.42,1.23,0,.16-.01,.32-.04,.51l-.52,3.4c-.02,.12-.03,.2-.03,.25,0,.23,.09,.35,.29,.35,.11,0,.21-.03,.28-.08,.07-.05,.21-.17,.41-.35l.18,.18c-.28,.34-.54,.58-.77,.73-.24,.15-.49,.23-.75,.23-.53,0-.79-.26-.79-.79,0-.15,0-.26,.03-.35l.56-3.44c.02-.09,.03-.21,.03-.38,0-.35-.09-.62-.27-.79-.18-.17-.43-.26-.75-.26-.27,0-.54,.07-.82,.22-.28,.15-.58,.39-.91,.71l-.78,4.89h-1.09Z"/><path class="cls-1" d="M131.49,10.7c-.22-.22-.32-.55-.32-.99,0-.15,.01-.31,.04-.49l.7-4.43h-1.02l.08-.45h1.03l.21-1.32,1.02-.51h.16l-.29,1.83h1.93l-.08,.45h-1.93l-.7,4.45c-.02,.14-.03,.24-.03,.3,0,.28,.07,.48,.2,.61,.13,.13,.3,.2,.5,.2,.12,0,.25-.04,.38-.11s.29-.19,.47-.34l.18,.18c-.27,.29-.54,.53-.82,.7s-.54,.26-.79,.26c-.39,0-.69-.11-.91-.33Z"/></g><g><path class="cls-1" d="M11.75,.39c-3.28,0-5.91,2.63-5.91,5.91s2.63,5.91,5.91,5.91,5.91-2.63,5.91-5.91S15.03,.39,11.75,.39Zm0,8.87c-1.64,0-2.96-1.32-2.96-2.96s1.32-2.96,2.96-2.96,2.96,1.32,2.96,2.96-1.32,2.96-2.96,2.96Z"/><path class="cls-1" d="M2.62,4.46l-1.34,3.08-1.27,2.94,3.08,1.34,1.27-2.9c.78-1.73,0-3.71-1.73-4.46Z"/><path class="cls-1" d="M2.69,4.5l1.33-3.13L.89,0c-.76,1.73,.04,3.75,1.8,4.5Z"/></g></svg>