<?xml version="1.0" encoding="utf-8"?>
<!-- Generator: Adobe Illustrator 27.0.1, SVG Export Plug-In . SVG Version: 6.00 Build 0)  -->
<svg version="1.1" id="Laag_2_00000054250494699002433140000013283426780130795947_"
	 xmlns="http://www.w3.org/2000/svg" xmlns:xlink="http://www.w3.org/1999/xlink" x="0px" y="0px" width="259.2px" height="192.3px"
	 viewBox="0 0 259.2 192.3" enable-background="new 0 0 259.2 192.3" xml:space="preserve">
<path fill="#FFFFFF" d="M10,0h24.7c3.8,0,6.9,3.1,6.9,6.9v6.7c0,3.8-3.1,6.9-6.9,6.9H10c-3.8,0-6.9-3.1-6.9-6.9V6.9
	C3.1,3.1,6.2,0,10,0z"/>
<g>
	<path fill="#C59859" d="M10.7,15.6c-0.7-0.3-1.3-0.6-1.7-1.1l2.1-1.5c0.1,0.7,0.3,1.2,0.7,1.6c0.4,0.4,0.8,0.6,1.4,0.6
		c0.4,0,0.8-0.1,1.1-0.4c0.3-0.3,0.4-0.6,0.4-1c0-0.3-0.1-0.6-0.3-0.8s-0.5-0.5-0.9-0.6L12,11.6c-0.5-0.3-1-0.6-1.3-0.9
		c-0.3-0.4-0.4-0.8-0.4-1.4c0-0.6,0.2-1.2,0.5-1.7c0.4-0.4,0.8-0.8,1.4-1s1.2-0.3,1.9-0.3c0.8,0,1.5,0.2,2.2,0.5s1.1,0.8,1.4,1.3
		l-2.1,1c-0.1-0.6-0.3-1.1-0.6-1.4S14.3,7,13.8,7c-0.4,0-0.6,0.1-0.9,0.3s-0.4,0.5-0.4,0.8c0,0.3,0.1,0.6,0.3,0.8s0.4,0.4,0.8,0.6
		l1.7,0.8c0.5,0.3,0.9,0.6,1.2,1c0.3,0.4,0.4,0.9,0.4,1.4c0,0.6-0.2,1.2-0.5,1.7s-0.8,0.9-1.5,1.1S13.7,16,13,16
		C12.2,16,11.4,15.8,10.7,15.6z"/>
	<path fill="#C59859" d="M26.1,14.8c0,0.1,0.1,0.1,0.2,0.2c0.1,0.1,0.3,0.1,0.6,0.1l-0.1,0.7h-4.6l0.1-0.7c0.5,0,0.8-0.1,1-0.2
		c0.2-0.1,0.3-0.3,0.3-0.5c0-0.1,0-0.2,0-0.3L23.4,13h-3.5l-0.5,0.9c-0.2,0.4-0.3,0.6-0.3,0.7c0,0.1,0.1,0.3,0.3,0.3
		c0.2,0.1,0.5,0.1,0.9,0.1l-0.1,0.7H17l0.1-0.7c0.2,0,0.4-0.1,0.5-0.1c0.1-0.1,0.2-0.1,0.3-0.2s0.2-0.3,0.4-0.6l4.2-7.7h1.6l1.9,8
		C26.1,14.6,26.1,14.7,26.1,14.8L26.1,14.8z M23.2,12.2l-0.9-3.7l-2,3.7H23.2z"/>
	<path fill="#C59859" d="M35.1,7.3c-0.1,0.1-0.2,0.2-0.5,0.5l-2.9,3.9l-0.4,2.4c0,0,0,0.1,0,0.2c0,0.2,0.1,0.4,0.2,0.5
		s0.4,0.2,0.7,0.3l-0.1,0.7h-4.4l0.1-0.7c0.4-0.1,0.7-0.2,0.9-0.3c0.2-0.1,0.3-0.4,0.3-0.6l0.4-2.5l-1.8-3.9c0,0-0.1-0.1-0.1-0.3
		s-0.1-0.2-0.2-0.3s-0.2-0.1-0.4-0.1l0.1-0.7h3.9L31,7.2c-0.6,0-1,0.2-1,0.6c0,0.1,0,0.2,0.1,0.3l1.3,2.8L33.6,8
		c0.2-0.2,0.2-0.4,0.2-0.5c0-0.2-0.2-0.3-0.7-0.3l0.1-0.7h2.5l-0.1,0.7C35.4,7.2,35.3,7.2,35.1,7.3L35.1,7.3z"/>
</g>
<g>
	<path fill="#FFFFFF" d="M40.2,85.3h4.1v0.8H24.8v-0.8h4.1V67H16.9v18.3H21v0.8H1.5v-0.8h4.1V51.9L1,49.2h20.4l-4.6,2.7v14.1h12.1
		V51.9l-4.6-2.7h20.4l-4.6,2.7V85.3z"/>
	<path fill="#FFFFFF" d="M69.3,81.5c-2.2,3.3-5.6,5.1-10.3,5.1c-7.2,0-13.2-5-13.2-13c0-7.5,5-13.7,13.2-13.7c4.8,0,8.1,2.8,8.1,6.6
		c0,4.2-3.3,8-9.4,10.3c2.9,2.9,6.6,4.8,10,4.8C68.3,81.6,68.8,81.5,69.3,81.5C69.3,81.4,69.3,81.5,69.3,81.5z M52.1,64.8
		c0,4.2,2.2,8.6,5.3,11.7c1.4-1.8,2-3.9,2-6.5c0-4.5-3-8.2-5.2-8.2C52.9,61.8,52.2,62.9,52.1,64.8L52.1,64.8z"/>
	<path fill="#FFFFFF" d="M70.8,85.3h2.6V54.8l-2.9-2.5l13.2-4.6v37.6h2.6v0.8H70.8C70.8,86.1,70.8,85.3,70.8,85.3z"/>
	<path fill="#FFFFFF" d="M88.1,85.3h2.6V54.8l-2.9-2.5l13.2-4.6v37.6h2.6v0.8H88.1C88.1,86.1,88.1,85.3,88.1,85.3z"/>
	<path fill="#FFFFFF" d="M105.6,73.1c0-7.3,5.7-13.2,14.1-13.2s14.6,5.1,14.6,13.2c0,7.5-4.8,13.5-14.5,13.5
		C112.4,86.6,105.6,81.4,105.6,73.1z M127.6,82.2c0-4.3-8.6-20.3-13.1-20.3c-1.3,0-2.1,0.9-2.1,2.5c0,5,8.9,20.4,13.1,20.4
		C126.9,84.8,127.6,83.9,127.6,82.2z"/>
	<path fill="#FFFFFF" d="M1.8,124.8c0-7.5,5.4-13.8,14.1-13.8c2.9,0,5.5,0.4,8.8,1.6l-2,14.3h0c-4.8-9-9.2-13.9-12.3-13.9
		c-1.3,0-2.1,0.9-2.1,2.8c0,8.2,8.1,17,15.3,17c0.7,0,1.1-0.1,1.5-0.2l0,0.1c-2.3,3.5-6,5.1-10.6,5.1C7.7,137.6,1.8,132.7,1.8,124.8
		L1.8,124.8z"/>
	<path fill="#FFFFFF" d="M59.1,136.3v0.8H44.2v-0.8h2v-15.4c0-4-1-5.3-3.1-5.3c-1,0-2,0.3-3.1,0.8v20h2v0.8H27.3v-0.8h2.6v-30.5
		l-2.9-2.5l13.2-4.6v16.9c3.3-2.9,6.3-4.9,9.8-4.9c4.3,0,6.6,2.7,6.6,7.9v17.6L59.1,136.3L59.1,136.3z"/>
	<path fill="#FFFFFF" d="M83.3,111.1v13.6h-0.1c-5.3-5.9-7.7-7.2-9.5-6.9v18.5h3.8v0.8H60.9v-0.8h2.6v-18.6l-2.9-2.5l13.2-4.4v6.4
		c2.9-3.8,6.2-6.2,8.6-6.2C82.7,110.9,83,111,83.3,111.1L83.3,111.1z"/>
	<path fill="#FFFFFF" d="M85.7,136.3h2.6v-18.7l-2.9-2.5l13.2-4.6v25.8h2.6v0.8H85.6L85.7,136.3L85.7,136.3z M87.7,103.9
		c0-3.4,2.1-5.7,5.7-5.7s5.7,2.3,5.7,5.7s-2.1,5.7-5.7,5.7S87.7,107.3,87.7,103.9z"/>
	<path fill="#FFFFFF" d="M103.2,136.3l1.6-8.3h0.1l6.3,8.5c0.7,0.2,1.1,0.3,1.7,0.3c2.2,0,3.8-1.2,3.8-3.3c0-1.5-0.9-2.4-3.1-3.5
		l-3.4-1.8c-4.2-2.2-6.3-4.7-6.3-8.6c0-5.2,4.2-8.6,11-8.6c3.3,0,6,0.6,8.5,1.5l-2,8.1h-0.1l-5.9-8.4c-0.3-0.1-0.6-0.2-0.9-0.2
		c-2.2,0-3.4,1.3-3.4,2.7c0,1.8,0.8,3.1,3.8,4.7l3.8,2.1c3.5,1.9,5.4,4.5,5.4,7.6c0,5.3-5.4,8.6-11.7,8.6
		C110.2,137.6,106.8,137.4,103.2,136.3L103.2,136.3z"/>
	<path fill="#FFFFFF" d="M147.7,132.4c-1.9,3-5.3,5.2-10,5.2c-6.1,0-8.5-3.6-8.5-10.2v-14.6h-3.9v-0.1l14.2-11.2V112h7.2v0.8h-7.2
		v11.9c0,5.9,1.4,8.1,5.2,8.1C145.8,132.9,146.7,132.8,147.7,132.4L147.7,132.4L147.7,132.4z"/>
	<path fill="#FFFFFF" d="M196,136.3v0.8h-14.9v-0.8h2.1v-15.4c0-4-0.6-5.3-2.8-5.3c-1.1,0-2.1,0.3-3.2,0.8c0.1,0.7,0.1,1.5,0.1,2.4
		v17.6h2.1v0.8h-14.3v-0.8h2.1v-15.4c0-4-0.6-5.3-2.8-5.3c-1,0-2.1,0.2-3,0.7v20.1h2.1v0.8h-14.9v-0.8h2.6v-18.7l-2.9-2.5l13.2-4.6
		v5.1c4.1-3.3,6.9-4.9,9.7-4.9c3.5,0,5.4,1.7,6.1,5.1c4.3-3.5,7.1-5.1,10-5.1c4.4,0,6.4,2.7,6.4,7.9v17.6L196,136.3L196,136.3z"/>
	<path fill="#FFFFFF" d="M224,136.3v0.8h-12.8v-2.9c-2.4,2.1-5.1,3.4-7.9,3.4c-3.3,0-5.6-1.9-5.6-5.1c0-4.7,5-7.8,13.5-8.8
		c0-5.6-2.2-8.4-6.1-8.4c-2.3,0-3.9,0.6-5.6,1.9l-0.3-0.3c3.5-3.9,7.3-6,12.4-6c6.4,0,9.9,3.7,9.9,11.1v14.2L224,136.3L224,136.3z
		 M211.2,133.5v-9.1c-3.1,0.9-4.2,2.8-4.2,5.5c0,2.4,1,3.7,3.1,3.7C210.3,133.6,210.7,133.6,211.2,133.5L211.2,133.5z"/>
	<path fill="#FFFFFF" d="M226.2,136.3l1.6-8.3h0.1l6.4,8.5c0.7,0.2,1.1,0.3,1.7,0.3c2.2,0,3.8-1.2,3.8-3.3c0-1.5-0.9-2.4-3.1-3.5
		l-3.4-1.8c-4.2-2.2-6.3-4.7-6.3-8.6c0-5.2,4.2-8.6,11-8.6c3.3,0,6,0.6,8.5,1.5l-2,8.1h-0.1l-5.9-8.4c-0.3-0.1-0.6-0.2-0.9-0.2
		c-2.2,0-3.4,1.3-3.4,2.7c0,1.8,0.8,3.1,3.8,4.7l3.8,2.1c3.5,1.9,5.4,4.5,5.4,7.6c0,5.3-5.4,8.6-11.7,8.6
		C233.2,137.6,229.8,137.4,226.2,136.3L226.2,136.3z"/>
	<path fill="#FFFFFF" d="M22.7,183.4c-1.9,3-5.3,5.2-10,5.2c-6.1,0-8.5-3.6-8.5-10.2v-14.6H0.3v-0.1l14.2-11.2V163h7.2v0.8h-7.2
		v11.9c0,5.9,1.4,8.1,5.2,8.1C20.8,183.9,21.6,183.7,22.7,183.4L22.7,183.4L22.7,183.4z"/>
	<path fill="#FFFFFF" d="M45.8,162.1v13.6h0c-5.3-5.9-7.7-7.2-9.5-6.9v18.5h3.8v0.8H23.4v-0.8H26v-18.6l-2.9-2.5l13.2-4.4v6.4
		c2.9-3.8,6.2-6.2,8.6-6.2C45.2,161.9,45.5,162,45.8,162.1L45.8,162.1z"/>
	<path fill="#FFFFFF" d="M72.4,183.5c-2.2,3.3-5.6,5.1-10.3,5.1c-7.2,0-13.2-5-13.2-13c0-7.5,5-13.7,13.2-13.7
		c4.8,0,8.1,2.8,8.1,6.6c0,4.2-3.3,8-9.4,10.3c2.9,2.9,6.6,4.8,10,4.8C71.4,183.6,71.9,183.5,72.4,183.5
		C72.4,183.4,72.4,183.5,72.4,183.5z M55.3,166.8c0,4.2,2.2,8.6,5.3,11.7c1.4-1.8,2-3.9,2-6.5c0-4.5-3-8.2-5.2-8.2
		C56,163.8,55.3,164.9,55.3,166.8L55.3,166.8z"/>
	<path fill="#FFFFFF" d="M97.2,183.5c-2.2,3.3-5.6,5.1-10.3,5.1c-7.2,0-13.2-5-13.2-13c0-7.5,5-13.7,13.2-13.7
		c4.8,0,8.1,2.8,8.1,6.6c0,4.2-3.3,8-9.4,10.3c2.9,2.9,6.6,4.8,10,4.8C96.2,183.6,96.7,183.5,97.2,183.5L97.2,183.5z M80.1,166.8
		c0,4.2,2.2,8.6,5.3,11.7c1.4-1.8,2-3.9,2-6.5c0-4.5-3-8.2-5.2-8.2C80.9,163.8,80.1,164.9,80.1,166.8L80.1,166.8z"/>
</g>
<polygon fill="#FFFFFF" points="35.6,26.6 27.1,18.1 35.6,18.1 "/>
</svg>
